PathFileType        4      (X/Y/Z)      C:\Users\pc\Desktop\IMUTRC\Sujet_08\Sujet_08_velo_100.trc         
DataRate	CameraRate	NumFrames	NumMarkers	Units	OrigDataRate	OrigDataStartFrame	OrigNumFrames
60.0	60.0	4	64	mm	60.0	583	932
Frame#	Time	pHipOrigin			pRightASI			pLeftASI			pRightCSI			pLeftCSI			pRightIschialTub			pLeftIschialTub			pSacrum			pL5SpinalProcess			pL3SpinalProcess			pT12SpinalProcess			pIJ			pT4SpinalProcess			pT8SpinalProcess			pPX			pC7SpinalProcess			pTopOfHead			pRightAuricularis			pLeftAuricularis			pBackOfHead			pRightAcromion			pLeftAcromion			pRightArmLatEpicondyle			pRightArmMedEpicondyle			pLeftArmLatEpicondyle			pLeftArmMedEpicondyle			pRightUlnarStyloid			pRightRadialStyloid			pRightOlecranon			pLeftUlnarStyloid			pLeftRadialStyloid			pLeftOlecranon			pRightTopOfHand			pRightPinky			pRightBallHand			pLeftTopOfHand			pLeftPinky			pLeftBallHand			pRightGreaterTrochanter			pRightKneeLatEpicondyle			pRightKneeMedEpicondyle			pRightPatella			pLeftGreaterTrochanter			pLeftKneeLatEpicondyle			pLeftKneeMedEpicondyle			pLeftPatella			pRightTibialTub			pRightLatMalleolus			pRightMedMalleolus			pLeftTibialTub			pLeftLatMalleolus			pLeftMedMalleolus			pRightHeelFoot			pRightFirstMetatarsal			pRightFifthMetatarsal			pRightPivotFoot			pRightHeelCenter			pRightToe			pLeftHeelFoot			pLeftFirstMetatarsal			pLeftFifthMetatarsal			pLeftPivotFoot			pLeftHeelCenter			pLeftToe			
		X1	Y1	Z1	X2	Y2	Z2	X3	Y3	Z3	X4	Y4	Z4	X5	Y5	Z5	X6	Y6	Z6	X7	Y7	Z7	X8	Y8	Z8	X9	Y9	Z9	X10	Y10	Z10	X11	Y11	Z11	X12	Y12	Z12	X13	Y13	Z13	X14	Y14	Z14	X15	Y15	Z15	X16	Y16	Z16	X17	Y17	Z17	X18	Y18	Z18	X19	Y19	Z19	X20	Y20	Z20	X21	Y21	Z21	X22	Y22	Z22	X23	Y23	Z23	X24	Y24	Z24	X25	Y25	Z25	X26	Y26	Z26	X27	Y27	Z27	X28	Y28	Z28	X29	Y29	Z29	X30	Y30	Z30	X31	Y31	Z31	X32	Y32	Z32	X33	Y33	Z33	X34	Y34	Z34	X35	Y35	Z35	X36	Y36	Z36	X37	Y37	Z37	X38	Y38	Z38	X39	Y39	Z39	X40	Y40	Z40	X41	Y41	Z41	X42	Y42	Z42	X43	Y43	Z43	X44	Y44	Z44	X45	Y45	Z45	X46	Y46	Z46	X47	Y47	Z47	X48	Y48	Z48	X49	Y49	Z49	X50	Y50	Z50	X51	Y51	Z51	X52	Y52	Z52	X53	Y53	Z53	X54	Y54	Z54	X55	Y55	Z55	X56	Y56	Z56	X57	Y57	Z57	X58	Y58	Z58	X59	Y59	Z59	X60	Y60	Z60	X61	Y61	Z61	X62	Y62	Z62	X63	Y63	Z63	X64	Y64	Z64	
583	9.7	0.0	1249.97582	7.653894434872941E-14	91.52158599946705	1317.19272	135.01145061273576	92.72819414710531	1326.40273	-129.11071494878195	70.44827458308245	1393.61963	114.37586789229204	71.4765154505472	1401.21385	-103.28120280161278	-69.23656076699747	1212.16631	52.85097616115312	-68.66055221898968	1216.04421	-55.92563541897297	-55.75840924282366	1289.88585	1.0934553607244064	9.49954528982712	1371.48329	5.01809006577445	78.75968726502431	1463.42179	6.184094355487223	142.08560784355942	1547.6045	6.378296038186629	390.0015904367303	1582.99032	-8.54483048343012	280.71125217313306	1676.70619	2.049051867138036	213.1754209081052	1623.86983	4.861035522014234	300.96823419274784	1507.04815	-4.998950369084717	326.2501649559181	1710.79938	0.8174769720986514	577.097154178515	1753.61784	-30.41869165425016	498.4859147003253	1717.90886	47.68144968706124	477.37828418353104	1728.4115	-84.77397672777089	471.8145694629697	1773.1689	-12.032448981791338	337.8721749559464	1648.42985	154.63231772458312	315.7436367748479	1655.37775	-158.60008323941403	454.3060196427524	1387.31804	148.34514035463235	433.66847253265234	1379.23909	90.74121153161366	407.0053892982213	1388.12594	-196.97732949943338	401.52433668122444	1378.10804	-136.40018191147394	559.9143226473457	1160.29943	137.61463845952355	602.2024798289767	1183.72839	118.890494376224	422.0698898509481	1374.5533	131.2093528264665	523.3109718754738	1162.0768	-183.75597203250172	567.7187629985218	1188.73735	-180.8744317677414	380.6816490065921	1372.77593	-170.1306157288848	733.8668997065073	1090.65884	221.14393206832003	645.9237507543302	1090.65884	189.9580175722771	603.407273779213	1133.4773	141.83780086912802	672.3834959983636	1072.23882	-291.5321451915382	597.2439870883861	1080.47936	-236.67375537849682	566.4711386230131	1134.76993	-191.20207993644073	19.799842556281007	1219.27579	158.14573757061495	341.15331321775284	988.54086	126.59024370054892	348.2792294988467	998.72034	50.73010290996613	367.70619258224866	1029.9051	93.18615288981988	20.17617478532344	1230.42475	-160.03752254630365	313.7957619903303	963.98084	-145.46968289039808	319.9283136060591	965.91978	-68.81977214202917	343.83069251511336	998.72034	-107.61179950043615	392.5784592735438	962.04189	91.69825599786472	295.33558757993626	594.1263	124.63489194849248	299.92600736415426	592.51051	64.36505322808557	340.62534359076983	916.63816	-114.09807926908704	72.02342378459677	648.09372	-154.71022164395657	77.82039968651605	640.17634	-95.00509004978146	237.10483774434556	529.65625	92.22576122496568	381.3194713216331	485.06042	44.284064459297525	385.28805981346636	478.75884	118.48542447316647	403.3800101078666	475.36568	78.82546898547145	273.2352171154107	520.60782	89.63820925613393	478.64417817898004	449.99776	72.58477974940254	-11.956710441697133	631.12792	-122.2457732912345	74.49963073604053	503.64202	-85.76873186252728	72.55985763669545	502.1878	-160.37696461878988	85.31850830221921	485.222	-122.03981221475327	10.862534931276286	601.72052	-122.29247007518366	128.80440742712702	418.48984	-121.83018057391055	
584	9.717	0.0	1249.97582	7.653894434872941E-14	93.15916725777227	1316.70798	134.06535268876198	90.80751637495725	1327.04904	-130.08958488364374	71.67040935349507	1393.13489	113.9248798127949	69.84321661848507	1401.69858	-103.59707775421975	-68.37012619960774	1211.84316	53.578001087089085	-69.40749941194774	1216.20579	-55.28683227423114	-55.678753546684035	1289.72428	2.0040052652175726	9.39568366785397	1371.48329	5.141867526893614	78.49221650363997	1463.42179	5.748732028448612	141.55067398123518	1547.76608	5.50757781198548	389.45101673362706	1583.63664	-10.9051530088599	279.97287106522947	1677.19093	0.16392334703893463	212.60064893961282	1624.19299	3.5350467900728972	300.4774003466382	1507.53289	-6.67636207311363	325.5957296308417	1711.44569	-1.4190680922119245	576.1951780195207	1755.07205	-32.86296119507541	497.48006283103734	1719.52465	45.36095883992348	476.47630159666073	1729.21939	-87.21823860815171	470.6650383817372	1774.13838	-14.68444176656289	337.8167034368753	1649.07617	152.68743525916983	314.0747834954291	1655.70091	-160.63318748602143	454.1025788250492	1387.80278	147.33072240028994	433.46503294751756	1379.56225	89.72680766559179	406.1190388916855	1388.4491	-197.93199350846166	401.1131726195749	1378.91593	-137.16704494357805	559.6667677251073	1160.78416	137.40691521557721	601.9549249067385	1184.05155	118.68277113227775	421.8465267662227	1374.87645	129.96730344947616	523.0833327923815	1162.88469	-183.73605619335572	567.4712080762835	1189.54524	-181.08215501168775	380.0229376831487	1373.26066	-171.1051955770591	733.3276821853716	1091.30516	221.53517263037904	645.4883884272915	1091.30516	190.22548833366147	603.0558648954459	1133.80046	141.75386151417703	672.2995502155366	1073.04672	-291.1807286473267	597.2638952670876	1081.28725	-236.4461227232806	566.2434995399208	1135.57783	-191.18216409729473	17.938912301570966	1216.36737	157.84978488503006	319.8037639653064	960.74925	126.39366798850283	329.0182419237583	971.57505	50.809557616482834	350.118334284946	1000.33613	94.03674662680763	21.542009283877334	1233.65633	-160.15701758117976	332.47769393811495	987.73296	-145.61316754059584	337.24441748316593	988.54086	-68.8437694177953	359.4053547445102	1023.60352	-106.56590730278882	373.08983261536304	936.02765	91.7976265435274	285.7876445267626	565.36523	121.68545538137442	290.8333424771653	564.23417	61.37578498267552	356.55570479062123	939.90555	-114.23021416519336	81.7122764689986	678.14743	-156.70478678454728	87.28159919950504	669.58374	-96.9797381186578	226.7943217457553	501.70307	88.42552227079253	370.5735929960043	455.65303	40.75129626650872	374.086909749529	448.54355	114.99248029822526	392.2827152380263	445.31196	75.20875500985548	262.80092365570135	492.33148	85.73410867998763	467.2153826040743	418.81299	69.11175907405178	-2.846921045043537	661.50478	-124.30437480338243	82.47123237767697	533.21099	-87.72774775106903	80.42760408423484	531.5952	-162.21221070665692	92.95862332711073	514.62939	-123.8551360355982	19.744692905282	631.77423	-124.33114932030949	135.98923019751336	447.25091	-123.60567148389514	
585	9.733	0.0	1249.97582	7.653894434872941E-14	95.23211084311609	1316.38482	132.85178400340385	88.76305471381394	1327.69536	-131.17230878003429	73.45167625162104	1392.81173	113.31027616601051	68.0861415578721	1402.18332	-104.01680024047936	-67.60755325419117	1211.68158	54.4288034741442	-70.23838595985686	1216.36737	-54.29662024572225	-55.702945384197044	1289.72428	3.0383313982615663	9.311737885026831	1371.48329	5.493284071105095	78.3485232033748	1463.58337	5.417231323383139	141.34723316353194	1547.92766	4.4931598576430885	389.1081739349145	1584.12137	-13.513024028651857	279.56599709026744	1677.51409	-1.8649061337697896	212.23359898249842	1624.35457	1.9614890475727123	300.2981590268924	1507.85604	-8.725099732623953	324.9213784666193	1711.76885	-3.8832522396148565	575.3970493941791	1756.2031	-35.431006964451406	496.7858034881133	1720.6557	42.669142037304304	476.0096736763845	1729.70413	-89.92997767779293	469.8270780781035	1774.94627	-17.70776570212357	338.0728244441681	1649.39932	150.37122683827516	312.73744500939625	1655.53933	-162.80998626546233	453.8792234007683	1387.80278	146.08867945117572	433.46931537376054	1379.56225	88.46483478901104	405.2526043242958	1388.4491	-198.65901843439764	400.825793679489	1379.56225	-137.83003992583292	559.3153511808958	1160.78416	137.32296943275009	601.6035160229713	1183.88997	118.59883177732665	421.7469552309371	1375.03803	128.82911446189073	522.9794711704083	1163.36943	-183.61227873223655	567.2634848323372	1190.02998	-180.83460008944945	379.5079119995261	1373.58382	-171.748281148044	732.8083740755059	1091.46674	222.15405993597489	644.9292486391338	1091.30516	190.38909747307264	602.7243706182566	1133.80046	141.89754715399775	672.4631593549477	1073.36988	-290.62158885916887	597.1799494842605	1081.61041	-236.09470617906916	566.1595537570936	1136.06256	-190.8307475530832	15.746481341795487	1213.7821	157.6975254997104	295.22744353172004	933.76555	126.02064228619241	306.0752190896657	944.75292	50.75239277845884	329.1799350058286	970.92874	94.60703517943395	22.348696333828997	1237.04949	-160.11290990452073	350.14521435943334	1013.74719	-145.55321903353484	353.7737501494672	1013.58562	-68.68423528712813	373.84184207464205	1050.74881	-105.4204448024242	350.62200378660106	909.52868	91.92826911030369	270.4249827722474	537.08889	119.13005713367302	276.17350615062855	536.28099	58.98827187275224	372.5059818296187	965.59663	-114.1347099782073	94.64779565748981	707.39324	-158.29525395876854	99.96957755407847	698.50639	-98.77792976939375	210.4414403022868	475.2041	85.03923104730589	353.1863918473678	426.24563	37.340805545064654	356.3482920566811	418.32826	111.49804379395404	374.44023592320525	415.09668	71.83809596670346	246.1165491676118	464.86303	82.49151718464226	448.91762512306866	386.82034	65.78093170919172	10.108520410469808	690.26586	-125.66721055495584	95.98581362134807	562.29522	-89.25419264205364	93.59076235581837	560.84101	-163.82259372002423	106.34942068178657	543.87521	-125.48543488811151	32.70012670035089	660.69689	-125.693991499759	149.48388917416236	476.65831	-125.35974779752762	
586	9.75	0.0	1249.97582	7.653894434872941E-14	97.0774076849232	1315.90009	131.65812472931566	86.84237051378976	1328.1801	-132.15117105445162	75.00531815497523	1392.48858	112.71558712580378	66.53679616908153	1402.50648	-104.68408530942169	-66.72119518721101	1211.35842	55.383473911048576	-71.06927250776596	1216.52895	-53.306408217213374	-55.72714364958614	1289.72428	4.072665191749992	9.435515346145996	1371.48329	5.597145693078245	78.30869152508275	1463.58337	4.961953157198512	141.37143266148937	1547.92766	3.4588401524751853	388.76532347575755	1584.44453	-16.12090147631996	279.15911668742933	1677.67566	-3.8937279541340897	212.09418934104465	1624.51614	0.36802955424703043	300.01505608517346	1508.1792	-10.6500599310151	324.59844384660823	1711.93043	-6.263490604190631	574.8265598519298	1757.17258	-38.01896857297357	496.215313945864	1721.4636	40.08118042878228	475.6668232172276	1730.02729	-92.53785512546101	469.2366726967083	1775.59259	-20.523366393737977	338.66044615652646	1649.5609	147.91132511711535	311.503954057016	1655.53933	-165.11056127345404	453.6956984222111	1387.6412	145.30190057992561	433.2857980556478	1379.07751	87.67806234563704	404.4900237184347	1388.28752	-199.50982724932882	400.41462961783947	1379.88541	-138.596902957937	558.652356198641	1160.29943	137.61034837283597	601.1681536959328	1183.40524	118.86630253871103	421.43964636338467	1374.87645	127.93848162911192	522.6678863044888	1163.53101	-183.24094634887908	567.0557615883909	1190.35314	-180.5870451672111	378.97297813720184	1373.58382	-172.61899937424513	731.9376558493047	1090.982	222.68899379829912	644.1823078740518	1090.982	191.02789295737009	602.0613692081256	1133.31572	142.18493375452806	672.295260128849	1073.53146	-289.918762198622	596.8882804574871	1081.77199	-235.4957347126193	565.8479688911742	1136.22414	-190.45941516972567	13.885544659209373	1211.84316	157.40158047456995	270.63120602641925	910.82132	125.41996341246913	282.9885029553079	921.48554	50.363727235369396	307.72652413140906	945.56082	94.53423692850707	22.82389033915966	1240.1195	-159.92510249972045	365.1209192107009	1039.76143	-144.7989970952293	368.0665300910133	1038.79195	-67.87027225926064	385.7742994907585	1077.73251	-104.05590807145343	328.01048808545005	885.93814	91.72740331157011	250.9605620399002	512.69044	118.19510031372336	256.83286287940047	512.20571	58.15717667477574	387.13027013667477	991.12612	-113.46443382272892	109.48407554641476	732.76116	-159.1345043695409	114.70199582103024	723.71273	-99.49340271904691	189.531529375246	452.7446	83.31321935773916	331.11836966571946	400.55456	35.48673396813569	333.80508353014653	391.82929	109.45617124010089	352.12465881931854	388.43613	69.77630114582817	224.8552140359151	441.59565	80.68155328437231	425.6715899359872	358.54399	63.57115992923982	25.420001965169803	714.17957	-126.31864713305178	113.90516496327176	587.82472	-90.24848610718264	111.51012135818648	586.37051	-164.81688075727715	124.60027272877572	569.72786	-126.62342165350573	48.694525504327856	685.09533	-126.40517559529297	168.97679825858623	503.48044	-126.72109121977104	
